<?xml version="1.0" encoding="UTF-8"?>
<svg width="87px" height="50px" viewBox="0 0 87 50" version="1.1" xmlns="http://www.w3.org/2000/svg" xmlns:xlink="http://www.w3.org/1999/xlink">
    <!-- Generator: Sketch 42 (36781) - http://www.bohemiancoding.com/sketch -->
    <title>DJI Logo Copy 2</title>
    <desc>Created with Sketch.</desc>
    <defs></defs>
    <g id="Page-1" stroke="none" stroke-width="1" fill="none" fill-rule="evenodd">
        <g id="2.Login2" transform="translate(-330.000000, -298.000000)" fill="#ffffff">
            <g id="DJI-Logo-Copy-2" transform="translate(330.000000, 298.000000)">
                <path d="M40.9081961,0.285355348 L54.9085716,0.285355348 L47.6332108,30.2888484 C46.2327667,36.0797762 41.8665892,37.4719313 37.8304716,37.4719313 L5.56851176,37.4719313 C2.01399314,37.4719313 -0.962458824,35.9817422 0.64940098,29.2935668 L3.55747549,17.325042 C5.02740588,11.2549543 9.60462941,9.87045241 12.9152069,9.87045241 L35.4343039,9.87045241 L33.6184206,17.3490949 L22.1217686,17.3490949 C20.4322912,17.3490949 19.5060539,17.7084313 19.0348039,19.6530751 L17.1771549,27.2979016 C16.5155569,30.0355636 17.4872559,30.2254361 19.5230559,30.2254361 L30.057249,30.2254361 C31.9854931,30.2254361 33.6827324,30.104807 34.5165676,26.661592 L40.9081961,0.285355348 Z" id="Fill-1"></path>
                <polyline id="Fill-2" points="72.4756627 9.86097701 65.8877725 37.4693802 79.488602 37.4693802 86.0742745 9.86097701 72.4756627 9.86097701"></polyline>
                <path d="M55.8056098,9.86243476 L50.2618618,32.6405701 C49.0103696,37.8101302 45.3985618,39.553604 41.7675343,39.852808 C41.4075363,39.897634 31.2625402,39.8473414 31.2625402,39.8473414 L28.980951,49.2039356 L48.0567814,49.2039356 C53.0516618,49.2039356 60.4297735,46.6845722 63.0684039,35.8130072 L69.4045912,9.86243476 L55.8056098,9.86243476" id="Fill-3"></path>
            </g>
        </g>
    </g>
</svg>